<svg xmlns="http://www.w3.org/2000/svg" width="100%" height="100%" viewBox="0 0 450.26 40.66">
  <path d="M6.6,17.73a22.77,22.77,0,0,1,.57,4.93c0,7-3.83,11.09-6.11,11.09a1,1,0,0,1-1.06-1,2.54,2.54,0,0,1,.84-1.63C3.61,29,6,23.81,5.72,17.73ZM11.4,1.36C23.32,2.2,27,6.2,27,8.19A1,1,0,0,1,26,9.29a1.74,1.74,0,0,1-.66-.14c-2-2.42-6.95-5.54-14-7Zm.75,11.18,4.13.44c-.09.62-.35.84-1.71,1.06V35.47c0,1.5.17,1.63,2,1.63H26.71c.75,0,1.28-.05,1.59-.71a47,47,0,0,0,1.58-6.64h.44l-.09,7c1.23.39,1.5.52,1.5.92,0,1.1-1.19,1.58-5,1.58H16.63c-3.65,0-4.48-.57-4.48-3.82Zm19.31,3.08c7.13,4.71,9.29,10.56,9.29,14.22,0,2.11-.7,3.52-1.63,3.52A1.59,1.59,0,0,1,38,32.7c0-4.36-1.76-11.84-7-16.55Z" fill="#666"/>
  <path d="M58.11,14.08V29.62l7.26-1.9.18.66c-3,1.37-7.13,3.22-12.76,5.46a1.36,1.36,0,0,1-.93,1.1L50.1,31.51c1.23-.22,3.21-.71,5.64-1.28V14.08H50.45l-.26-1.14h5.55V1.5l4.48.39c0,.75-.66,1-2.11,1.19v9.86h2.07l1.76-2.33,3.39,2.46c-.35.7-.88,1-2.07,1Zm31.47,16.2-.09,6.64c1.36.4,1.63.53,1.63,1,0,1.14-1.37,1.58-5.77,1.58h-13c-4,0-5.2-.74-5.2-4.4v-16l-4.79,2.15-.75-.83,5.54-2.51V4.4l4.32.4c-.09.74-.44,1-1.94,1.18V16.85l6.82-3.12V.13L80.6.48c-.09.66-.53,1-1.94,1.1V12.67l6.56-2.94,1.19-2.25,3.69,2a3.4,3.4,0,0,1-2,1.19V25.83c0,1.72-.53,3.17-3.83,3.48,0-1.76-.57-2.07-3.08-2.33v-.53h3.7c.7,0,.88-.18.88-.71V10.65l-7.09,3.21V30.14c0,.09-.35.93-2.33.93V14.92L69.51,18V35.16c0,1.85.31,2.11,2.68,2.11H85.44a2.18,2.18,0,0,0,1.94-.66,34.86,34.86,0,0,0,1.71-6.33Z" fill="#666"/>
  <path d="M128.12,35.51a1.08,1.08,0,0,1-1.37-.17,20.17,20.17,0,0,0-8.54-5,9.09,9.09,0,0,1-.08,4.14c-1,2.86-3.39,3.78-7.4,3.78-2.77,0-5.41-.92-6.25-2.55a6.16,6.16,0,0,1-1-3c0-3.39,4.93-4.89,9-4.89A30.35,30.35,0,0,1,116,28c-.26-4.58-.53-11.09-.48-14s.13-4.62.13-6.12A4.9,4.9,0,0,0,115,5.37a2.34,2.34,0,0,0-2.11-.75,1,1,0,0,1-.18-.79,8.34,8.34,0,0,1,2.51-.44,5.16,5.16,0,0,1,2.6.92c.83.57.83.93.48,2.34a32.77,32.77,0,0,0-1,6.29,6.53,6.53,0,0,0,2.6.26,18.38,18.38,0,0,0,4.44-1.1,3.84,3.84,0,0,1,1.55-.17,3.93,3.93,0,0,1,1.54.35.71.71,0,0,1,.35.79c0,.66-.4.79-1,1a33.23,33.23,0,0,1-5.81,1.1,4.81,4.81,0,0,1-2.2-.4,10.44,10.44,0,0,1-1.54-.92,87.35,87.35,0,0,0,.62,14.48,23.07,23.07,0,0,1,8.58,3.43A5.64,5.64,0,0,1,128,33.27a3.45,3.45,0,0,1,.48,1.1A1,1,0,0,1,128.12,35.51Zm-12-5.67a29.72,29.72,0,0,0-3.12-.4c-2.78-.18-5.64.4-7,1.45a2.4,2.4,0,0,0-.93,2.55c.44,1.63,1.94,2.6,3.87,2.78,3.26.26,6-.31,6.78-2.16A8.71,8.71,0,0,0,116.1,29.84Z" fill="#666"/>
  <path d="M169.92,8.71a3.09,3.09,0,0,1-.4,1.06,4.49,4.49,0,0,1-1.5,1.36,28.4,28.4,0,0,1-5.15,2.42c2.25,3.13,5.33,7.93,6,10.61a4.79,4.79,0,0,1,0,2.38A3.46,3.46,0,0,1,168,28a1.48,1.48,0,0,1-1.05.27,1.7,1.7,0,0,1-1-.49,7.83,7.83,0,0,0-2.47-1.49c-1.05-.49-2.55-1-4-1.5a.81.81,0,0,1,.22-.79c1.49.31,5.36,1.14,6,1.23a.82.82,0,0,0,.8-.22,1.26,1.26,0,0,0,.08-1c-.61-3.13-3.12-7-5.28-10a55.34,55.34,0,0,1-10.16,2.07,5.9,5.9,0,0,1-2.82-.4,9.93,9.93,0,0,1-2.29-1.63,8.47,8.47,0,0,1-1.36-1.93.83.83,0,0,1,.62-.53,8.83,8.83,0,0,0,2.94,1.76,12.9,12.9,0,0,0,4.32.35,40.8,40.8,0,0,0,7.61-1.23c-1-1.32-2.95-3.52-3.87-5.06a2.49,2.49,0,0,1-.13-2.12,3.86,3.86,0,0,1,.92-1.45,1.48,1.48,0,0,1,1.06-.44c.57,0,.83.53,1.4,1a11.92,11.92,0,0,0,3.26,2,24.69,24.69,0,0,0,3.92,1.37,9.48,9.48,0,0,0,1.93,0,1.11,1.11,0,0,1,1.06.13A1.15,1.15,0,0,1,169.92,8.71Zm-6.21,27.07a1.34,1.34,0,0,1-.66,1.36,10.13,10.13,0,0,1-4.44.92c-3.13,0-7.62-.13-10.74-3.12a6.63,6.63,0,0,1-2.11-4.66,7.2,7.2,0,0,1,3.12-5.46.91.91,0,0,1,.62.57,7,7,0,0,0-1.9,4.14c0,3.34,2.69,5.59,7.53,6.07a25.3,25.3,0,0,0,7.26-.48C163.05,34.94,163.58,35.16,163.71,35.78Zm1.94-26.54a15.43,15.43,0,0,0-3.22-1.89,14,14,0,0,0-2.77-1.15c-.61,0-.79.14-.79.71,0,1.32,1.67,3.43,2.9,5.15a12.7,12.7,0,0,0,3.74-1.72C166,10,166.09,9.68,165.65,9.24Z" fill="#666"/>
  <path d="M191.6,35.86a4.2,4.2,0,0,1,.79,2.56c0,.92-.44,1.58-1.19,1.71s-1.32-.17-1.89-1.27a18.8,18.8,0,0,0-3.3-4.71,18.53,18.53,0,0,0-4.36-3.26.93.93,0,0,1,.4-.75C186.75,31.33,190,33.58,191.6,35.86Z" fill="#666"/>
  <path d="M232.72,9.55a11.07,11.07,0,0,1,8,3.17c3.61,3.56,3.22,9.55,1.63,12.85-2.07,3.91-5.06,6.07-9.46,7.57a33.28,33.28,0,0,1-10.21,1.4,1.12,1.12,0,0,1-.09-.83,35.38,35.38,0,0,0,9.51-2.25c4.31-1.89,7-4.57,8.05-7.48,1.54-3.74.62-8.31-1.54-10.56-2-2-4.88-2.42-7.48-2.2-3.43.27-7.44,2.38-10.82,4.4-1.76,1.06-4,2.6-5.81,3.52a3.71,3.71,0,0,1-3.39.31,6.43,6.43,0,0,1-2.2-1.54,7,7,0,0,1-1-1.72,1.19,1.19,0,0,1,.66-.57,3,3,0,0,0,1.93,1.1,5.55,5.55,0,0,0,3.08-.17c2.33-.71,5.68-2.64,9-4.27a23.42,23.42,0,0,1,10.08-2.73Z" fill="#666"/>
  <path d="M280,10.34a11.35,11.35,0,0,1,8,3.13c3.61,3.56,3.22,9.59,1.63,12.85-2.07,4-5.06,6.11-9.46,7.56A33,33,0,0,1,270,35.34a1.11,1.11,0,0,1-.09-.84,36,36,0,0,0,9.55-2.24c4.27-1.9,6.91-4.62,8.06-7.48,1.54-3.75.61-8.32-1.59-10.57-2-2-4.88-2.42-7.48-2.2-3.48.27-7.44,2.38-10.83,4.36-1.76,1.06-4,2.6-5.81,3.56a3.68,3.68,0,0,1-3.38.27,6.2,6.2,0,0,1-2.2-1.5,8.22,8.22,0,0,1-1-1.76.92.92,0,0,1,.66-.48,3.27,3.27,0,0,0,1.94,1.05,6,6,0,0,0,3.08-.17c2.33-.71,5.63-2.69,9-4.27A23.43,23.43,0,0,1,280,10.34Zm4.76-4.09a.77.77,0,0,1,.3-.75,11.49,11.49,0,0,1,5.33,1.85,3.14,3.14,0,0,1,1.36,2,1,1,0,0,1-.57,1.32c-.44.18-1,0-1.72-.92A12.77,12.77,0,0,0,284.75,6.25Zm3.56-3.92a.75.75,0,0,1,.22-.75A11.09,11.09,0,0,1,293.81,3a2.93,2.93,0,0,1,1.5,1.84,1,1,0,0,1-.49,1.32c-.48.27-1,0-1.8-.74A11.24,11.24,0,0,0,288.31,2.33Z" fill="#666"/>
  <path d="M315.21,13a65.44,65.44,0,0,0-4.66,5.23,3.16,3.16,0,0,0,.22,4.49c.83.84,2.81,2.73,3.78,3.65a47.91,47.91,0,0,1,5.59,6.34A10.22,10.22,0,0,1,321.72,36a6,6,0,0,1,.31,2.2,1.14,1.14,0,0,1-1,1.23c-.67.09-.93-.31-1.15-.88a38.35,38.35,0,0,0-1.63-3.83,31.27,31.27,0,0,0-5.41-7.44c-1-1.1-3-2.72-3.7-3.47a4,4,0,0,1-1.23-2.07,6.59,6.59,0,0,1-.22-1.72,2.66,2.66,0,0,1,.66-1.76c.62-.7,1.1-1.1,2.2-2.37,1.76-2.07,6.56-7.35,7.26-9.64a3.08,3.08,0,0,0,.09-1.76,1.88,1.88,0,0,0-1.5-1.15.84.84,0,0,1,.14-.79,8.18,8.18,0,0,1,1.49.13,2.51,2.51,0,0,1,1.32.66,5.71,5.71,0,0,1,1.41,1.72A1.42,1.42,0,0,1,320.58,7C319.3,8.49,317.15,11.09,315.21,13Z" fill="#666"/>
  <path d="M345.15,26c-.13.48-.4.75-1.41.75-1.05,3.74-2.68,7.74-4.58,10.16l-.74-.4a45.81,45.81,0,0,0,3.21-11.39ZM338.77,7.26a13.92,13.92,0,0,1,3.48,1.54C343.39,6.38,344.8,3,345.94,0l3.7,1.45c-.18.53-.53.71-1.54.62a87,87,0,0,1-4.93,7.39,4.13,4.13,0,0,1,1.8,3c0,.79-.44,1.32-1.05,1.32a1.35,1.35,0,0,1-.88-.35,14,14,0,0,0-4.58-5.77Zm16.46-.61a1.11,1.11,0,0,1-1,.48,5.26,5.26,0,0,1-.75-.09,130,130,0,0,1-9,12.32c2.59-.09,5.67-.22,8.88-.35a19.45,19.45,0,0,0-2.64-3.39l.44-.39c4.58,2.15,6,4.7,6,6.33,0,1-.52,1.59-1.18,1.59a1.56,1.56,0,0,1-1-.44,9.59,9.59,0,0,0-1.14-2.82l-4.53.66V39.83s-.31.79-2.34.79V20.9c-1.84.22-3.82.53-6.07.79a1.28,1.28,0,0,1-1.06.88l-1.23-3.08c1.06,0,2.64,0,4.54-.08a161.6,161.6,0,0,0,8.36-14.57ZM352.06,25c3.65,2.68,4.84,5.32,4.84,7,0,1.28-.62,2.07-1.37,2.07a1.51,1.51,0,0,1-1.09-.57,21.84,21.84,0,0,0-2.95-8.28ZM375.69,7.26,379,9.9a2.72,2.72,0,0,1-1.85.71c-.22,14.74-.71,26.14-2.64,28.12-1.19,1.18-2.33,1.8-5,1.84a1.79,1.79,0,0,0-.75-1.58,23.87,23.87,0,0,0-5-.93l0-.83c2.24.13,5.55.26,7,.26.93,0,1.23-.08,1.72-.57,1.54-1.63,2-12.72,2.29-26.8H361a34,34,0,0,1-5.24,7l-.7-.44C357.87,13,360.77,6.42,362.58,0l3.91,1.28c-.17.48-.48.74-1.58.7a55.08,55.08,0,0,1-3.26,7h12.63Zm-15.05,10c6,2.68,7.83,6.11,7.83,8.27,0,1.28-.66,2.11-1.49,2.11a1.85,1.85,0,0,1-1.19-.53c-.44-3.12-3.13-7.17-5.59-9.46Z" fill="#666"/>
  <path d="M420,24.16h-9.86C414.37,29.62,422,34.5,428.32,36.7l-.09.49a2.66,2.66,0,0,0-2.29,1.89c-6.25-2.91-13.07-8.41-16.9-14.92h-.22V39.65c0,.13-.35,1-2.42,1V25.17C402,31,395.22,36,387.65,39.43l-.48-.79a50.71,50.71,0,0,0,16.77-14.48h-8.5v1.45c0,.05-.39.88-2.42.88V11.66l2.69,1.23H406.4V7.48H388.18l-.31-1.1H406.4V0l4.31.4c-.09.61-.52.92-1.89,1V6.38h13.07l2-2.51,3.87,2.64c-.39.66-.92,1-2.15,1H408.82v5.41h10.74l1.23-1.62,3.52,2.55a3.65,3.65,0,0,1-1.89.88V25.48a3,3,0,0,1-2.42.88Zm-24.56-1.1h11V14h-11ZM420,14H408.82v9.07H420Z" fill="#666"/>
  <path d="M437.72,34.15A6.27,6.27,0,1,1,444,40.44a6.27,6.27,0,0,1-6.25-6.29ZM444,39.08a4.91,4.91,0,1,0-4.93-4.89A4.9,4.9,0,0,0,444,39.08Z" fill="#666"/>
</svg>
