<svg xmlns="http://www.w3.org/2000/svg" width="100%" height="100%" viewBox="0 0 101.4 588.17">
	<path d="M97.88,8.3a6.33,6.33,0,0,0,.61-2.72c0-1.17-.42-2.54-1.94-2.54-2.79,0-2.14,6.24-6.93,6.24-3.1,0-4.33-2.39-4.33-5.3a9.81,9.81,0,0,1,.6-3l1.94.21a8.82,8.82,0,0,0-.71,3c0,1.18.67,2.85,2.37,2.85,3.25,0,2.36-6.25,6.87-6.25,2.58,0,4,2,4,4.66A9.85,9.85,0,0,1,99.8,8.6Z" fill="#aeaeaf"/>
	<path d="M100.07,16.71V18.9L85.54,25V22.77l3.66-1.48V14.18L85.54,12.7V10.51Zm-2,1-7.2-2.89v5.79Z" fill="#aeaeaf"/>
	<path d="M97.88,33.74A6.33,6.33,0,0,0,98.49,31c0-1.17-.42-2.54-1.94-2.54-2.79,0-2.14,6.24-6.93,6.24-3.1,0-4.33-2.39-4.33-5.31a9.69,9.69,0,0,1,.6-3l1.94.21a8.76,8.76,0,0,0-.71,3c0,1.19.67,2.85,2.37,2.85,3.25,0,2.36-6.24,6.87-6.24,2.58,0,4,2,4,4.66A9.79,9.79,0,0,1,99.8,34Z" fill="#aeaeaf"/>
	<path d="M100.07,42.15v2.19L85.54,50.48V48.21l3.66-1.48V39.61l-3.66-1.47V36Zm-2,1-7.2-2.89v5.79Z" fill="#aeaeaf"/>
	<polygon points="100.07 50.4 100.07 52.69 87.62 56.17 87.62 56.21 100.07 59.31 100.07 62.26 87.62 65.41 87.62 65.45 100.07 68.92 100.07 71.13 85.54 66.66 85.54 63.97 98.23 60.81 98.23 60.77 85.54 57.58 85.54 54.79 100.07 50.4" fill="#aeaeaf"/>
	<path d="M100.07,77.26v2.18L85.54,85.58V83.31l3.66-1.47V74.72l-3.66-1.48V71.05Zm-2,1-7.2-2.9v5.79Z" fill="#aeaeaf"/>
	<path d="M97.88,94.28a6.33,6.33,0,0,0,.61-2.72c0-1.17-.42-2.54-1.94-2.54-2.79,0-2.14,6.24-6.93,6.24-3.1,0-4.33-2.39-4.33-5.3a9.75,9.75,0,0,1,.6-3l1.94.21a8.76,8.76,0,0,0-.71,3c0,1.19.67,2.86,2.37,2.86,3.25,0,2.36-6.25,6.87-6.25,2.58,0,4,2,4,4.66a9.85,9.85,0,0,1-.52,3.11Z" fill="#aeaeaf"/>
	<polygon points="100.07 98.2 100.07 100.28 93.99 100.28 93.99 107.23 100.07 107.23 100.07 109.31 85.54 109.31 85.54 107.23 92.16 107.23 92.16 100.28 85.54 100.28 85.54 98.2 100.07 98.2" fill="#aeaeaf"/>
	<rect x="85.54" y="113.12" width="14.53" height="2.08" fill="#aeaeaf"/>
	<polygon points="87.87 118.79 87.87 121.12 82.77 119.35 82.77 117.47 87.87 118.79" fill="#aeaeaf"/>
	<path d="M95.41,130.8a6.74,6.74,0,0,1,1,3.49c0,3-1.49,4.27-4.39,4.27H87.62a17.36,17.36,0,0,0-2.08.08v-1.83h1.37v0a4,4,0,0,1-1.62-3.29c0-2.29,1-3.89,3.31-3.89,2.66,0,3.5,2.91,3.5,4.93,0,.77,0,1.31,0,2.08,1.84,0,2.77-.66,2.77-2.62a5,5,0,0,0-1.08-3.08Zm-4.81,5.8c0-.41,0-.83,0-1.25,0-1.06-.17-3.68-2-3.68a1.87,1.87,0,0,0-1.73,2,2.68,2.68,0,0,0,2.79,2.95Z" fill="#aeaeaf"/>
	<path d="M96.15,141.87v1.9H94.47v0a3.8,3.8,0,0,1,1.93,3.47c0,2.75-1.7,4-4.55,4H85.54v-2H91c2.48,0,3.69-.54,3.79-2.25,0-2.22-1.79-3.22-4.37-3.22H85.54v-2Z" fill="#aeaeaf"/>
	<path d="M96.4,165.08a5.23,5.23,0,0,1-5.55,5.39,5.4,5.4,0,1,1,0-10.8,5.23,5.23,0,0,1,5.55,5.41m-9.53,0c0,2.29,2.08,3.31,4,3.31s4-1.23,4-3.31-1.95-3.33-4-3.33-4,1-4,3.33" fill="#aeaeaf"/>
	<path d="M96.15,173.1v1.83H94.51v0a3.23,3.23,0,0,1,1.89,2.77,5.77,5.77,0,0,1-.14,1.29H94.51A2.83,2.83,0,0,0,94.7,178c0-1.75-1.67-2.9-4.33-2.9H85.54v-2Z" fill="#aeaeaf"/>
	<path d="M86,190.58c-3.23,0-5.08-1.66-5.08-5.47a10.76,10.76,0,0,1,.73-3.81l1.81.21a8,8,0,0,0-1,3.82c0,2.07,1.4,3.29,3.64,3.29h1v0A4.42,4.42,0,0,1,85.54,185c0-3,2.48-4.53,5.22-4.53s5.64,1.54,5.64,4.74c0,1.87-.68,2.91-1.83,3.5v0h1.59v1.81Zm4.72-2c2.21,0,4.1-1,4.1-3.1s-2.14-3-3.95-3c-2,0-3.75,1.12-3.75,3s1.62,3.1,3.6,3.1" fill="#aeaeaf"/>
	<path d="M95.41,194.41a6.81,6.81,0,0,1,1,3.5c0,3-1.49,4.27-4.39,4.27H87.62a17.36,17.36,0,0,0-2.08.08v-1.83h1.37v0a4,4,0,0,1-1.62-3.29c0-2.29,1-3.89,3.31-3.89,2.66,0,3.5,2.91,3.5,4.93,0,.77,0,1.31,0,2.08,1.84,0,2.77-.67,2.77-2.62a5,5,0,0,0-1.08-3.08Zm-4.81,5.81c0-.42,0-.83,0-1.25,0-1.06-.17-3.68-2-3.68a1.87,1.87,0,0,0-1.73,2,2.68,2.68,0,0,0,2.79,3Z" fill="#aeaeaf"/>
	<path d="M96.15,205.49v1.89H94.47v0a3.82,3.82,0,0,1,1.93,3.48c0,2.74-1.7,4-4.55,4H85.54v-2H91c2.48,0,3.69-.54,3.79-2.25,0-2.23-1.79-3.23-4.37-3.23H85.54v-1.95Z" fill="#aeaeaf"/>
	<path d="M96.15,220.41H85.54v-1.95H96.15Zm2.38-2.08h2.2v2.21h-2.2Z" fill="#aeaeaf"/>
	<path d="M94.36,230.74a5.54,5.54,0,0,0,.46-2.13c0-2.18-1.95-3.41-4-3.41s-4,1-4,3.54a4.13,4.13,0,0,0,.6,2.1l-1.74.15a5.92,5.92,0,0,1-.44-2.46,5.37,5.37,0,0,1,5.56-5.41,5.23,5.23,0,0,1,5.55,5.41A7.28,7.28,0,0,1,96,230.9Z" fill="#aeaeaf"/>
	<path d="M94.57,240.29v-2.5h1.58v2.5h1c2.58,0,4.27.67,4.27,3.56a7.16,7.16,0,0,1-.13,1.31l-1.58-.08a2.88,2.88,0,0,0,.13-.94c0-1.68-1.09-1.89-2.52-1.89H96.15v2.81H94.57v-2.81h-9v-2Z" fill="#aeaeaf"/>
	<path d="M95.41,247.62a6.78,6.78,0,0,1,1,3.5c0,3-1.49,4.26-4.39,4.26H87.62a14.58,14.58,0,0,0-2.08.09v-1.84h1.37v0a4,4,0,0,1-1.62-3.29c0-2.29,1-3.89,3.31-3.89,2.66,0,3.5,2.92,3.5,4.93,0,.77,0,1.32,0,2.09,1.84,0,2.77-.67,2.77-2.63a5,5,0,0,0-1.08-3.08Zm-4.81,5.81c0-.42,0-.84,0-1.25,0-1.06-.17-3.69-2-3.69a1.88,1.88,0,0,0-1.73,2,2.68,2.68,0,0,0,2.79,3Z" fill="#aeaeaf"/>
	<path d="M101.15,258.69v2H94.7v0a3.8,3.8,0,0,1,1.7,3.52c0,3.08-2.51,4.58-5.37,4.58s-5.74-1.35-5.74-4.56A4.27,4.27,0,0,1,87,260.61v0h-1.5v-1.88Zm-6.33,5.1c0-2.12-2-3.14-4-3.14-1.77,0-4,.92-4,3.12s2.35,3,4,2.94c1.91,0,3.93-.79,3.93-2.92" fill="#aeaeaf"/>
	<path d="M96.15,271.41v1.83H94.51v.05a3.22,3.22,0,0,1,1.89,2.76,5.64,5.64,0,0,1-.14,1.29H94.51a2.77,2.77,0,0,0,.19-1.08c0-1.75-1.67-2.89-4.33-2.89H85.54v-2Z" fill="#aeaeaf"/>
	<path d="M96.15,281.72H85.54v-2H96.15Zm2.38-2.08h2.2v2.2h-2.2Z" fill="#aeaeaf"/>
	<path d="M94.36,292a5.53,5.53,0,0,0,.46-2.12c0-2.19-1.95-3.42-4-3.42s-4,1-4,3.54a4.11,4.11,0,0,0,.6,2.1l-1.74.15a5.89,5.89,0,0,1-.44-2.46,5.37,5.37,0,0,1,5.56-5.41,5.24,5.24,0,0,1,5.55,5.41,7.34,7.34,0,0,1-.41,2.38Z" fill="#aeaeaf"/>
	<path d="M96.15,300.31v1.83H94.61v0a3.58,3.58,0,0,1,1.79,3.37,3.13,3.13,0,0,1-2.06,3,3.78,3.78,0,0,1,2.06,3.29c0,2.7-1.74,3.68-4.06,3.68h-6.8v-2h6.33c1.31,0,2.95-.31,2.95-1.89,0-2-1.95-2.79-3.93-2.79H85.54V307h6.33c1.31,0,2.95-.32,2.95-1.9,0-2-1.95-2.79-3.93-2.79H85.54v-1.95Z" fill="#aeaeaf"/>
	<path d="M95.41,319.33a6.81,6.81,0,0,1,1,3.5c0,3-1.49,4.27-4.39,4.27H87.62a17.36,17.36,0,0,0-2.08.08v-1.83h1.37v0A4,4,0,0,1,85.29,322c0-2.29,1-3.9,3.31-3.9,2.66,0,3.5,2.92,3.5,4.94,0,.77,0,1.31,0,2.08,1.84,0,2.77-.67,2.77-2.62a5,5,0,0,0-1.08-3.08Zm-4.81,5.81c0-.42,0-.83,0-1.25,0-1.06-.17-3.68-2-3.68a1.87,1.87,0,0,0-1.73,2,2.68,2.68,0,0,0,2.79,3Z" fill="#aeaeaf"/>
	<path d="M87,337.92v0a4.27,4.27,0,0,1-1.75-3.62c0-3.21,2.85-4.56,5.74-4.56s5.37,1.5,5.37,4.58a3.77,3.77,0,0,1-1.7,3.51v0h6.45v2H85.54v-1.87Zm-.17-3.21c0,2.21,2.19,3.13,4,3.13,2,0,4-1,4-3.15s-2-2.95-3.93-2.91c-1.67,0-4,.83-4,2.93" fill="#aeaeaf"/>
	<path d="M86,351.26a8.12,8.12,0,0,1-.69-3.35c0-3.77,2.29-5.49,5.74-5.49,3.15,0,5.37,2,5.37,5,0,3.54-2.58,4.68-6,4.68V344.5A3.47,3.47,0,0,0,86.87,348a6.3,6.3,0,0,0,1.06,3.27ZM91.87,350a2.67,2.67,0,0,0,2.95-2.64,2.93,2.93,0,0,0-2.95-2.85Z" fill="#aeaeaf"/>
	<path d="M94.57,361.76v-2.5h1.58v2.5h1c2.58,0,4.27.66,4.27,3.56a7.35,7.35,0,0,1-.13,1.31l-1.58-.09a2.86,2.86,0,0,0,.13-.93c0-1.69-1.09-1.9-2.52-1.9H96.15v2.81H94.57v-2.81h-9v-1.95Z" fill="#aeaeaf"/>
	<path d="M96.15,368.58v1.83H94.51v0a3.23,3.23,0,0,1,1.89,2.77,5.77,5.77,0,0,1-.14,1.29H94.51a2.85,2.85,0,0,0,.19-1.09c0-1.74-1.67-2.89-4.33-2.89H85.54v-2Z" fill="#aeaeaf"/>
	<path d="M96.4,381.39a5.24,5.24,0,0,1-5.55,5.39,5.41,5.41,0,1,1,0-10.81,5.24,5.24,0,0,1,5.55,5.42m-9.53,0c0,2.28,2.08,3.3,4,3.3s4-1.22,4-3.3-1.95-3.33-4-3.33-4,1-4,3.33" fill="#aeaeaf"/>
	<path d="M96.15,389.38v1.83H94.61v0a3.58,3.58,0,0,1,1.79,3.37,3.13,3.13,0,0,1-2.06,3,3.78,3.78,0,0,1,2.06,3.29c0,2.71-1.74,3.68-4.06,3.68h-6.8v-1.95h6.33c1.31,0,2.95-.31,2.95-1.9,0-2-1.95-2.78-3.93-2.78H85.54v-2h6.33c1.31,0,2.95-.31,2.95-1.9,0-2-1.95-2.78-3.93-2.78H85.54v-2Z" fill="#aeaeaf"/>
	<path d="M95.41,414.19a6.81,6.81,0,0,1,1,3.5c0,3-1.49,4.27-4.39,4.27H87.62a17.36,17.36,0,0,0-2.08.08v-1.83h1.37v0a4,4,0,0,1-1.62-3.29c0-2.29,1-3.9,3.31-3.9,2.66,0,3.5,2.92,3.5,4.94,0,.77,0,1.31,0,2.08,1.84,0,2.77-.67,2.77-2.62a5,5,0,0,0-1.08-3.08ZM90.6,420c0-.42,0-.83,0-1.25,0-1.06-.17-3.68-2-3.68a1.87,1.87,0,0,0-1.73,2,2.68,2.68,0,0,0,2.79,3Z" fill="#aeaeaf"/>
	<path d="M94.36,437.8a5.54,5.54,0,0,0,.46-2.13c0-2.18-1.95-3.41-4-3.41s-4,1-4,3.54a4.11,4.11,0,0,0,.6,2.1l-1.74.15a5.89,5.89,0,0,1-.44-2.46,5.37,5.37,0,0,1,5.56-5.41,5.23,5.23,0,0,1,5.55,5.41A7.28,7.28,0,0,1,96,438Z" fill="#aeaeaf"/>
	<path d="M96.4,445a5.23,5.23,0,0,1-5.55,5.39,5.4,5.4,0,1,1,0-10.8A5.23,5.23,0,0,1,96.4,445m-9.53,0c0,2.29,2.08,3.31,4,3.31s4-1.23,4-3.31-1.95-3.33-4-3.33-4,1-4,3.33" fill="#aeaeaf"/>
	<path d="M96.15,453v1.84H94.61v0a3.58,3.58,0,0,1,1.79,3.37,3.14,3.14,0,0,1-2.06,3,3.78,3.78,0,0,1,2.06,3.29c0,2.7-1.74,3.68-4.06,3.68h-6.8v-2h6.33c1.31,0,2.95-.31,2.95-1.89,0-2-1.95-2.79-3.93-2.79H85.54v-2h6.33c1.31,0,2.95-.31,2.95-1.89,0-2-1.95-2.79-3.93-2.79H85.54v-2Z" fill="#aeaeaf"/>
	<path d="M101.15,471.52v2H94.7v0A3.77,3.77,0,0,1,96.4,477c0,3.08-2.51,4.58-5.37,4.58s-5.74-1.36-5.74-4.56A4.25,4.25,0,0,1,87,473.44v-.05h-1.5v-1.87Zm-6.33,5.1c0-2.12-2-3.14-4-3.14-1.77,0-4,.91-4,3.12s2.35,3,4,2.93c1.91.05,3.93-.79,3.93-2.91" fill="#aeaeaf"/>
	<path d="M96.15,486.45H85.54v-2H96.15Zm2.38-2.09h2.2v2.21h-2.2Z" fill="#aeaeaf"/>
	<path d="M96.15,490v1.89H94.47v0a3.82,3.82,0,0,1,1.93,3.48c0,2.75-1.7,4-4.55,4H85.54v-2H91c2.48,0,3.69-.54,3.79-2.25C94.82,493,93,492,90.45,492H85.54v-2Z" fill="#aeaeaf"/>
	<path d="M95.41,503.24a6.81,6.81,0,0,1,1,3.5c0,3-1.49,4.27-4.39,4.27H87.62a17.36,17.36,0,0,0-2.08.08v-1.83h1.37v0a4,4,0,0,1-1.62-3.29c0-2.29,1-3.89,3.31-3.89,2.66,0,3.5,2.91,3.5,4.93,0,.77,0,1.31,0,2.08,1.84,0,2.77-.66,2.77-2.62a5,5,0,0,0-1.08-3.08Zm-4.81,5.81c0-.41,0-.83,0-1.25,0-1.06-.17-3.68-2-3.68a1.87,1.87,0,0,0-1.73,2,2.68,2.68,0,0,0,2.79,2.95Z" fill="#aeaeaf"/>
	<path d="M94.57,520v-2.81h-5.8a1.69,1.69,0,0,0-1.9,1.64,2.4,2.4,0,0,0,.38,1.34H85.58a6.35,6.35,0,0,1-.29-1.67c0-2,1-3.27,3.08-3.27h6.2V512.8h1.58v2.39h2.46l.62,2H96.15V520Z" fill="#aeaeaf"/>
	<path d="M96.15,524.62H85.54v-2H96.15Zm2.38-2.08h2.2v2.21h-2.2Z" fill="#aeaeaf"/>
	<path d="M96.4,532.91a5.24,5.24,0,0,1-5.55,5.39,5.4,5.4,0,1,1,0-10.8,5.23,5.23,0,0,1,5.55,5.41m-9.53,0c0,2.29,2.08,3.31,4,3.31s4-1.23,4-3.31-1.95-3.33-4-3.33-4,1-4,3.33" fill="#aeaeaf"/>
	<path d="M96.15,540.92v1.9H94.47v0a3.8,3.8,0,0,1,1.93,3.47c0,2.75-1.7,4-4.55,4H85.54v-2H91c2.48,0,3.69-.54,3.79-2.24,0-2.23-1.79-3.23-4.37-3.23H85.54v-2Z" fill="#aeaeaf"/>
	<path d="M96.4,564.13a5.23,5.23,0,0,1-5.55,5.39,5.4,5.4,0,1,1,0-10.8,5.24,5.24,0,0,1,5.55,5.41m-9.53,0c0,2.29,2.08,3.31,4,3.31s4-1.23,4-3.31-1.95-3.33-4-3.33-4,1-4,3.33" fill="#aeaeaf"/>
	<path d="M94.57,573.42v-2.5h1.58v2.5h1c2.58,0,4.27.66,4.27,3.56a7.26,7.26,0,0,1-.13,1.31l-1.58-.09a2.82,2.82,0,0,0,.13-.93c0-1.69-1.09-1.9-2.52-1.9H96.15v2.81H94.57v-2.81h-9v-2Z" fill="#aeaeaf"/>
	<path d="M67.6,7.16V4.35H61.79A1.68,1.68,0,0,0,59.9,6a2.52,2.52,0,0,0,.37,1.34H58.61a6,6,0,0,1-.29-1.67c0-2,1-3.27,3.08-3.27h6.2V0h1.58V2.39h2.46l.62,2H69.18V7.16Z" fill="#aeaeaf"/>
	<path d="M69.18,9.62v1.83H67.54v0a3.24,3.24,0,0,1,1.89,2.77,5.77,5.77,0,0,1-.14,1.29H67.54a3,3,0,0,0,.18-1.08c0-1.75-1.66-2.9-4.32-2.9H58.57v-2Z" fill="#aeaeaf"/>
	<path d="M68.43,18.21a6.72,6.72,0,0,1,1,3.5c0,3-1.5,4.27-4.39,4.27H60.65a17.36,17.36,0,0,0-2.08.08V24.23h1.37v0a4,4,0,0,1-1.62-3.29c0-2.29,1-3.89,3.31-3.89,2.66,0,3.49,2.91,3.49,4.93,0,.77,0,1.31,0,2.08,1.83,0,2.77-.67,2.77-2.62a5,5,0,0,0-1.08-3.08ZM63.62,24c0-.42.05-.83.05-1.25,0-1.06-.17-3.68-2-3.68a1.87,1.87,0,0,0-1.73,2A2.68,2.68,0,0,0,62.69,24Z" fill="#aeaeaf"/>
	<path d="M60.07,36.8v0a4.24,4.24,0,0,1-1.75-3.62c0-3.21,2.85-4.56,5.74-4.56s5.37,1.5,5.37,4.58a3.8,3.8,0,0,1-1.71,3.52v0h6.46v2H58.57V36.8Zm-.17-3.2c0,2.2,2.18,3.12,4,3.12,2,0,4-1,4-3.14s-2-3-3.93-2.92c-1.67,0-4,.83-4,2.94" fill="#aeaeaf"/>
	<path d="M69.18,44.21H58.57v-2H69.18Zm2.37-2.08h2.21v2.21H71.55Z" fill="#aeaeaf"/>
	<path d="M67.6,53.43V50.62H61.79a1.68,1.68,0,0,0-1.89,1.65,2.48,2.48,0,0,0,.37,1.33H58.61a6,6,0,0,1-.29-1.66c0-2,1-3.27,3.08-3.27h6.2v-2.4h1.58v2.4h2.46l.62,1.95H69.18v2.81Z" fill="#aeaeaf"/>
	<path d="M69.18,58.1H58.57v-2H69.18ZM71.55,56h2.21v2.2H71.55Z" fill="#aeaeaf"/>
	<path d="M69.43,66.38a5.23,5.23,0,0,1-5.56,5.39,5.4,5.4,0,1,1,0-10.8,5.24,5.24,0,0,1,5.56,5.41m-9.53,0c0,2.29,2.08,3.31,4,3.31s4-1.23,4-3.31-2-3.33-4-3.33-4,1-4,3.33" fill="#aeaeaf"/>
	<path d="M69.18,74.4v1.89H67.5v0a3.84,3.84,0,0,1,1.93,3.48c0,2.75-1.71,4-4.56,4h-6.3v-2h5.49c2.48,0,3.69-.54,3.79-2.25,0-2.23-1.79-3.22-4.37-3.22H58.57v-2Z" fill="#aeaeaf"/>
	<path d="M68.43,87.62a6.65,6.65,0,0,1,1,3.49c0,3-1.5,4.27-4.39,4.27H60.65a17.36,17.36,0,0,0-2.08.08V93.63h1.37v0a4,4,0,0,1-1.62-3.29c0-2.29,1-3.89,3.31-3.89,2.66,0,3.49,2.91,3.49,4.93,0,.77,0,1.31,0,2.08,1.83,0,2.77-.66,2.77-2.62a5,5,0,0,0-1.08-3.08Zm-4.81,5.8c0-.41.05-.83.05-1.25,0-1.06-.17-3.68-2-3.68a1.87,1.87,0,0,0-1.73,2,2.68,2.68,0,0,0,2.79,3Z" fill="#aeaeaf"/>
	<rect x="58.57" y="98.94" width="15.61" height="1.96" fill="#aeaeaf"/>
	<path d="M60.36,109a3.69,3.69,0,0,0-.21,1.31c0,1.87,1.06,2.37,2.83,2.37H73.09v2.08H62.31c-2,0-4-.93-4-4.08a4.76,4.76,0,0,1,.25-1.68Z" fill="#aeaeaf"/>
	<path d="M68.43,118.86a6.72,6.72,0,0,1,1,3.5c0,3-1.5,4.27-4.39,4.27H60.65a17.36,17.36,0,0,0-2.08.08v-1.83h1.37v0a4,4,0,0,1-1.62-3.29c0-2.29,1-3.9,3.31-3.9,2.66,0,3.49,2.92,3.49,4.94,0,.77,0,1.31,0,2.08,1.83,0,2.77-.67,2.77-2.62A5,5,0,0,0,66.77,119Zm-4.81,5.81c0-.42.05-.83.05-1.25,0-1.06-.17-3.68-2-3.68a1.86,1.86,0,0,0-1.73,2,2.68,2.68,0,0,0,2.79,3Z" fill="#aeaeaf"/>
	<path d="M69.18,129.94v1.87h-1.5v0a4.25,4.25,0,0,1,1.75,3.6c0,3.08-2.52,4.58-5.37,4.58s-5.74-1.35-5.74-4.56a3.83,3.83,0,0,1,1.7-3.54v0H54.2v-1.95ZM67.85,135c0-2.13-2-3.15-4-3.15-1.77,0-4,.92-4,3.12s2.35,3,4,2.94c1.91,0,3.93-.79,3.93-2.91" fill="#aeaeaf"/>
	<path d="M68.43,143.15a6.72,6.72,0,0,1,1,3.5c0,3-1.5,4.27-4.39,4.27H60.65a17.36,17.36,0,0,0-2.08.08v-1.83h1.37v0a4,4,0,0,1-1.62-3.29c0-2.29,1-3.89,3.31-3.89,2.66,0,3.49,2.91,3.49,4.93,0,.77,0,1.31,0,2.08,1.83,0,2.77-.66,2.77-2.62a5,5,0,0,0-1.08-3.08ZM63.62,149c0-.41.05-.83.05-1.25,0-1.06-.17-3.68-2-3.68a1.87,1.87,0,0,0-1.73,2,2.68,2.68,0,0,0,2.79,3Z" fill="#aeaeaf"/>
	<path d="M69.18,154.23v1.89H67.5v0a3.81,3.81,0,0,1,1.93,3.47c0,2.75-1.71,4-4.56,4h-6.3v-2h5.49c2.48,0,3.69-.54,3.79-2.25,0-2.22-1.79-3.22-4.37-3.22H58.57v-2Z" fill="#aeaeaf"/>
	<path d="M59,175.09a8.19,8.19,0,0,1-.68-3.35c0-3.77,2.29-5.5,5.74-5.5,3.14,0,5.37,2,5.37,5,0,3.54-2.58,4.69-6,4.69v-7.58a3.47,3.47,0,0,0-3.54,3.5A6.25,6.25,0,0,0,61,175.09Zm5.89-1.27a2.68,2.68,0,0,0,3-2.65c0-1.91-1.58-2.7-3-2.85Z" fill="#aeaeaf"/>
	<path d="M60.65,177.73a5.24,5.24,0,0,0-.75,2.44c0,.89.37,2,1.52,2,1.93,0,1.77-4.6,4.74-4.6,2.21,0,3.27,1.65,3.27,3.75a8.14,8.14,0,0,1-.42,2.44l-1.7-.17a5.73,5.73,0,0,0,.54-2.06c0-1-.42-1.87-1.29-1.87-2.17,0-1.54,4.6-4.93,4.6-2.27,0-3.31-1.81-3.31-3.71a6.05,6.05,0,0,1,.58-2.91Z" fill="#aeaeaf"/>
	<path d="M59,194.76a8.15,8.15,0,0,1-.68-3.35c0-3.77,2.29-5.5,5.74-5.5,3.14,0,5.37,2,5.37,5,0,3.54-2.58,4.68-6,4.68V188a3.47,3.47,0,0,0-3.54,3.5A6.25,6.25,0,0,0,61,194.76Zm5.89-1.27a2.68,2.68,0,0,0,3-2.64c0-1.92-1.58-2.71-3-2.86Z" fill="#aeaeaf"/>
	<path d="M69.18,204v1.87h-1.5v.05a4.24,4.24,0,0,1,1.75,3.6c0,3.08-2.52,4.58-5.37,4.58s-5.74-1.36-5.74-4.56A3.81,3.81,0,0,1,60,206v0H54.2v-2Zm-1.33,5.1c0-2.12-2-3.14-4-3.14-1.77,0-4,.91-4,3.12s2.35,3,4,2.93c1.91,0,3.93-.79,3.93-2.91" fill="#aeaeaf"/>
	<path d="M68.43,217.2a6.69,6.69,0,0,1,1,3.5c0,3-1.5,4.26-4.39,4.26H60.65a14.58,14.58,0,0,0-2.08.09v-1.84h1.37v0a4,4,0,0,1-1.62-3.29c0-2.29,1-3.89,3.31-3.89,2.66,0,3.49,2.92,3.49,4.93,0,.77,0,1.32,0,2.09,1.83,0,2.77-.67,2.77-2.63a5,5,0,0,0-1.08-3.08ZM63.62,223c0-.42.05-.84.05-1.25,0-1.06-.17-3.69-2-3.69a1.87,1.87,0,0,0-1.73,2,2.68,2.68,0,0,0,2.79,3Z" fill="#aeaeaf"/>
	<path d="M69.18,228.27v1.88h-1.5v0a4.25,4.25,0,0,1,1.75,3.6c0,3.08-2.52,4.58-5.37,4.58s-5.74-1.35-5.74-4.56a3.83,3.83,0,0,1,1.7-3.54v0H54.2v-2Zm-1.33,5.1c0-2.12-2-3.14-4-3.14-1.77,0-4,.92-4,3.12s2.35,3,4,2.94c1.91,0,3.93-.79,3.93-2.92" fill="#aeaeaf"/>
	<path d="M59,249.13a8.15,8.15,0,0,1-.68-3.35c0-3.77,2.29-5.5,5.74-5.5,3.14,0,5.37,2,5.37,5,0,3.54-2.58,4.68-6,4.68v-7.57a3.47,3.47,0,0,0-3.54,3.49A6.25,6.25,0,0,0,61,249.13Zm5.89-1.27a2.68,2.68,0,0,0,3-2.64c0-1.92-1.58-2.71-3-2.85Z" fill="#aeaeaf"/>
	<path d="M69.18,252.57v1.83H67.54v0a3.23,3.23,0,0,1,1.89,2.77,5.77,5.77,0,0,1-.14,1.29H67.54a3,3,0,0,0,.18-1.08c0-1.75-1.66-2.9-4.32-2.9H58.57v-2Z" fill="#aeaeaf"/>
	<path d="M55.65,269.55c2.83-1.89,5.83-3.41,9.33-3.41s6.43,1.54,9.32,3.41v1.88c-2.85-1.61-6-3.21-9.32-3.21s-6.5,1.54-9.33,3.21Z" fill="#aeaeaf"/>
	<polygon points="73.09 271.76 73.09 274.05 60.65 277.52 60.65 277.57 73.09 280.67 73.09 283.62 60.65 286.77 60.65 286.81 73.09 290.28 73.09 292.49 58.57 288.01 58.57 285.33 71.26 282.17 71.26 282.12 58.57 278.94 58.57 276.15 73.09 271.76" fill="#aeaeaf"/>
	<path d="M68.43,294.33a6.68,6.68,0,0,1,1,3.49c0,3-1.5,4.27-4.39,4.27H60.65a17.36,17.36,0,0,0-2.08.08v-1.83h1.37v0A4,4,0,0,1,58.32,297c0-2.29,1-3.89,3.31-3.89,2.66,0,3.49,2.91,3.49,4.93,0,.77,0,1.31,0,2.09,1.83,0,2.77-.67,2.77-2.63a5,5,0,0,0-1.08-3.08Zm-4.81,5.81c0-.42.05-.84.05-1.25,0-1.07-.17-3.69-2-3.69a1.87,1.87,0,0,0-1.73,2,2.69,2.69,0,0,0,2.79,3Z" fill="#aeaeaf"/>
	<path d="M60.65,304.61a5.21,5.21,0,0,0-.75,2.44c0,.89.37,2,1.52,2,1.93,0,1.77-4.6,4.74-4.6,2.21,0,3.27,1.64,3.27,3.74a8.14,8.14,0,0,1-.42,2.44l-1.7-.17a5.73,5.73,0,0,0,.54-2.06c0-1-.42-1.87-1.29-1.87-2.17,0-1.54,4.6-4.93,4.6-2.27,0-3.31-1.81-3.31-3.71a6.05,6.05,0,0,1,.58-2.91Z" fill="#aeaeaf"/>
	<path d="M74.18,313.5v2H67.66v0a3.88,3.88,0,0,1,1.77,3.41c0,2.75-1.71,4-4.56,4h-6.3v-2h5.49c2.48,0,3.69-.54,3.79-2.25,0-2.22-1.79-3.22-4.37-3.22H58.57v-2Z" fill="#aeaeaf"/>
	<path d="M69.18,328.43H58.57v-2H69.18Zm2.37-2.09h2.21v2.21H71.55Z" fill="#aeaeaf"/>
	<path d="M74.3,332.51c-2.83,1.89-5.83,3.41-9.32,3.41s-6.43-1.54-9.33-3.41v-1.88c2.85,1.61,6,3.21,9.33,3.21s6.49-1.54,9.32-3.21Z" fill="#aeaeaf"/>
	<path d="M68.43,345.22a6.72,6.72,0,0,1,1,3.5c0,3-1.5,4.27-4.39,4.27H60.65a17.36,17.36,0,0,0-2.08.08v-1.83h1.37v0a4,4,0,0,1-1.62-3.29c0-2.29,1-3.89,3.31-3.89,2.66,0,3.49,2.91,3.49,4.93,0,.77,0,1.31,0,2.08,1.83,0,2.77-.66,2.77-2.62a5,5,0,0,0-1.08-3.08ZM63.62,351c0-.42.05-.83.05-1.25,0-1.06-.17-3.68-2-3.68a1.87,1.87,0,0,0-1.73,2A2.68,2.68,0,0,0,62.69,351Z" fill="#aeaeaf"/>
	<path d="M69.18,356.3v1.89H67.5v.05a3.81,3.81,0,0,1,1.93,3.47c0,2.75-1.71,4-4.56,4h-6.3v-2h5.49c2.48,0,3.69-.54,3.79-2.25,0-2.23-1.79-3.22-4.37-3.22H58.57v-2Z" fill="#aeaeaf"/>
	<path d="M60.07,376.53v0a4.24,4.24,0,0,1-1.75-3.62c0-3.21,2.85-4.56,5.74-4.56s5.37,1.5,5.37,4.58a3.8,3.8,0,0,1-1.71,3.52v0h6.46v1.95H58.57v-1.87Zm-.17-3.2c0,2.2,2.18,3.12,4,3.12,2,0,4-1,4-3.14s-2-3-3.93-2.92c-1.67,0-4,.83-4,2.94" fill="#aeaeaf"/>
	<rect x="58.57" y="387.77" width="15.61" height="1.96" fill="#aeaeaf"/>
	<path d="M59,401.45a8.15,8.15,0,0,1-.68-3.35c0-3.77,2.29-5.5,5.74-5.5,3.14,0,5.37,2,5.37,5,0,3.54-2.58,4.68-6,4.68v-7.58a3.47,3.47,0,0,0-3.54,3.5A6.25,6.25,0,0,0,61,401.45Zm5.89-1.27a2.68,2.68,0,0,0,3-2.65c0-1.91-1.58-2.7-3-2.85Z" fill="#aeaeaf"/>
	<path d="M68.43,405.38a6.72,6.72,0,0,1,1,3.5c0,3-1.5,4.27-4.39,4.27H60.65a17.36,17.36,0,0,0-2.08.08V411.4h1.37v0a4,4,0,0,1-1.62-3.29c0-2.29,1-3.89,3.31-3.89,2.66,0,3.49,2.91,3.49,4.93,0,.77,0,1.31,0,2.08,1.83,0,2.77-.67,2.77-2.62a5,5,0,0,0-1.08-3.08Zm-4.81,5.81c0-.42.05-.83.05-1.25,0-1.06-.17-3.68-2-3.68a1.86,1.86,0,0,0-1.73,2,2.68,2.68,0,0,0,2.79,3Z" fill="#aeaeaf"/>
	<polygon points="58.57 421.16 58.57 418.83 69.18 415.02 69.18 417.17 60.52 420.04 60.52 420.08 69.18 423.01 69.18 424.97 58.57 421.16" fill="#aeaeaf"/>
	<path d="M59,435a8.11,8.11,0,0,1-.68-3.35c0-3.76,2.29-5.49,5.74-5.49,3.14,0,5.37,2,5.37,5,0,3.54-2.58,4.69-6,4.69v-7.58a3.47,3.47,0,0,0-3.54,3.5A6.18,6.18,0,0,0,61,435Zm5.89-1.27a2.67,2.67,0,0,0,3-2.64c0-1.91-1.58-2.7-3-2.85Z" fill="#aeaeaf"/>
	<path d="M60.65,437.65a5.21,5.21,0,0,0-.75,2.44c0,.89.37,2,1.52,2,1.93,0,1.77-4.6,4.74-4.6,2.21,0,3.27,1.65,3.27,3.75a8.08,8.08,0,0,1-.42,2.43l-1.7-.16a5.73,5.73,0,0,0,.54-2.06c0-1-.42-1.88-1.29-1.88-2.17,0-1.54,4.6-4.93,4.6-2.27,0-3.31-1.81-3.31-3.7a6.05,6.05,0,0,1,.58-2.91Z" fill="#aeaeaf"/>
	<path d="M69.43,457a5.23,5.23,0,0,1-5.56,5.39,5.4,5.4,0,1,1,0-10.8A5.24,5.24,0,0,1,69.43,457m-9.53,0c0,2.29,2.08,3.31,4,3.31s4-1.23,4-3.31-2-3.33-4-3.33-4,1-4,3.33" fill="#aeaeaf"/>
	<path d="M67.6,466.31v-2.49h1.58v2.49h1c2.58,0,4.27.67,4.27,3.56a8.17,8.17,0,0,1-.13,1.31l-1.58-.08a3.21,3.21,0,0,0,.12-.94c0-1.68-1.08-1.89-2.51-1.89H69.18v2.81H67.6v-2.81h-9v-2Z" fill="#aeaeaf"/>
	<path d="M67.6,484.57v-2.81H61.79a1.68,1.68,0,0,0-1.89,1.64,2.52,2.52,0,0,0,.37,1.34H58.61a6,6,0,0,1-.29-1.67c0-2,1-3.27,3.08-3.27h6.2v-2.39h1.58v2.39h2.46l.62,2H69.18v2.81Z" fill="#aeaeaf"/>
	<path d="M74.18,487v2H67.66v0a3.89,3.89,0,0,1,1.77,3.42c0,2.74-1.71,4-4.56,4h-6.3v-2h5.49c2.48,0,3.69-.55,3.79-2.25,0-2.23-1.79-3.23-4.37-3.23H58.57v-2Z" fill="#aeaeaf"/>
	<path d="M59,507.88a8.15,8.15,0,0,1-.68-3.35c0-3.77,2.29-5.49,5.74-5.49,3.14,0,5.37,2,5.37,5,0,3.54-2.58,4.68-6,4.68v-7.57a3.47,3.47,0,0,0-3.54,3.5A6.21,6.21,0,0,0,61,507.88Zm5.89-1.27a2.67,2.67,0,0,0,3-2.64c0-1.91-1.58-2.71-3-2.85Z" fill="#aeaeaf"/>
	<polygon points="46.12 1.81 46.12 3.89 39.73 3.89 46.12 10.1 46.12 12.86 39.25 6.04 31.59 13.4 31.59 10.37 38.71 3.89 31.59 3.89 31.59 1.81 46.12 1.81" fill="#aeaeaf"/>
	<path d="M31.59,24.79V22.9h1.69v0a3.83,3.83,0,0,1-1.94-3.48c0-2.75,1.71-4,4.56-4h6.31v2h-5.5c-2.47,0-3.68.54-3.78,2.25,0,2.23,1.79,3.22,4.37,3.22h4.91v2Z" fill="#aeaeaf"/>
	<path d="M42.21,28.1v1.83H40.67V30a3.58,3.58,0,0,1,1.79,3.37,3.15,3.15,0,0,1-2.06,3,3.77,3.77,0,0,1,2.06,3.28c0,2.71-1.75,3.69-4.06,3.69H31.59v-2h6.33c1.31,0,3-.31,3-1.89,0-2-2-2.79-3.94-2.79H31.59v-2h6.33c1.31,0,3-.31,3-1.89,0-2-2-2.79-3.94-2.79H31.59v-2Z" fill="#aeaeaf"/>
	<path d="M41.46,47.13a6.78,6.78,0,0,1,1,3.5c0,3-1.5,4.26-4.39,4.26H33.68a14.88,14.88,0,0,0-2.09.09V53.14H33v0a3.94,3.94,0,0,1-1.63-3.29c0-2.29,1-3.89,3.31-3.89,2.67,0,3.5,2.92,3.5,4.93,0,.77,0,1.32,0,2.09,1.83,0,2.77-.67,2.77-2.63a5,5,0,0,0-1.09-3.08Zm-4.81,5.81c0-.42,0-.84,0-1.25,0-1.06-.16-3.69-2-3.69a1.87,1.87,0,0,0-1.72,2,2.68,2.68,0,0,0,2.78,3Z" fill="#aeaeaf"/>
	<polygon points="33.3 57.43 40.63 63.55 40.63 57.73 42.21 57.73 42.21 65.82 40.5 65.82 33.17 59.7 33.17 66.05 31.59 66.05 31.59 57.43 33.3 57.43" fill="#aeaeaf"/>
	<path d="M41.46,69.11a6.78,6.78,0,0,1,1,3.5c0,3-1.5,4.26-4.39,4.26H33.68a16.77,16.77,0,0,0-2.09.09V75.13H33v0a3.9,3.9,0,0,1-1.63-3.28c0-2.29,1-3.9,3.31-3.9,2.67,0,3.5,2.92,3.5,4.94,0,.77,0,1.31,0,2.08,1.83,0,2.77-.67,2.77-2.62a5,5,0,0,0-1.09-3.09Zm-4.81,5.81c0-.42,0-.84,0-1.25,0-1.06-.16-3.69-2-3.69a1.87,1.87,0,0,0-1.72,2,2.68,2.68,0,0,0,2.78,3Z" fill="#aeaeaf"/>
	<path d="M33.68,79.39a5.24,5.24,0,0,0-.75,2.44c0,.89.37,2,1.52,2,1.93,0,1.76-4.6,4.74-4.6,2.21,0,3.27,1.64,3.27,3.74A8.14,8.14,0,0,1,42,85.41l-1.7-.17a5.67,5.67,0,0,0,.54-2.06c0-1-.42-1.87-1.29-1.87-2.17,0-1.54,4.6-4.94,4.6-2.27,0-3.31-1.81-3.31-3.71a6.11,6.11,0,0,1,.59-2.91Z" fill="#aeaeaf"/>
	<path d="M41.46,88.78a6.81,6.81,0,0,1,1,3.5c0,3-1.5,4.27-4.39,4.27H33.68a17.72,17.72,0,0,0-2.09.08V94.8H33v0a3.94,3.94,0,0,1-1.63-3.29c0-2.29,1-3.89,3.31-3.89,2.67,0,3.5,2.91,3.5,4.93,0,.77,0,1.31,0,2.08,1.83,0,2.77-.67,2.77-2.62a5,5,0,0,0-1.09-3.08Zm-4.81,5.81c0-.42,0-.83,0-1.25,0-1.06-.16-3.68-2-3.68a1.86,1.86,0,0,0-1.72,2,2.68,2.68,0,0,0,2.78,3Z" fill="#aeaeaf"/>
	<path d="M42.21,105.64v1.88h-1.5v0a4.25,4.25,0,0,1,1.75,3.6c0,3.08-2.52,4.58-5.37,4.58s-5.75-1.35-5.75-4.56a3.81,3.81,0,0,1,1.71-3.54v0H27.22v-2Zm-1.33,5.1c0-2.12-2-3.14-4-3.14-1.77,0-4,.92-4,3.12s2.35,3,4,2.94c1.92,0,3.94-.79,3.94-2.92" fill="#aeaeaf"/>
	<rect x="31.59" y="118.61" width="15.61" height="1.96" fill="#aeaeaf"/>
	<path d="M41.46,124.65a6.78,6.78,0,0,1,1,3.5c0,3-1.5,4.26-4.39,4.26H33.68a14.88,14.88,0,0,0-2.09.09v-1.84H33v0a3.94,3.94,0,0,1-1.63-3.29c0-2.29,1-3.89,3.31-3.89,2.67,0,3.5,2.92,3.5,4.93,0,.77,0,1.32,0,2.09,1.83,0,2.77-.67,2.77-2.63a5,5,0,0,0-1.09-3.08Zm-4.81,5.81c0-.42,0-.84,0-1.25,0-1.06-.16-3.69-2-3.69a1.87,1.87,0,0,0-1.72,2,2.68,2.68,0,0,0,2.78,3Z" fill="#aeaeaf"/>
	<path d="M42.21,135.72v1.9H40.52v0a3.81,3.81,0,0,1,1.94,3.47c0,2.75-1.71,4-4.56,4H31.59v-2h5.5c2.47,0,3.68-.54,3.79-2.24,0-2.23-1.79-3.23-4.37-3.23H31.59v-2Z" fill="#aeaeaf"/>
	<path d="M40.63,154.08v-2.81H34.82a1.68,1.68,0,0,0-1.89,1.65,2.4,2.4,0,0,0,.37,1.33H31.64a5.94,5.94,0,0,1-.3-1.67c0-2,1-3.26,3.08-3.26h6.21v-2.4h1.58v2.4h2.45l.63,2H42.21v2.81Z" fill="#aeaeaf"/>
	<rect x="31.59" y="156.6" width="2.33" height="2.33" fill="#aeaeaf"/>
	<polygon points="44.29 165.41 44.29 160.89 46.12 160.89 46.12 172.01 44.29 172.01 44.29 167.49 31.59 167.49 31.59 165.41 44.29 165.41" fill="#aeaeaf"/>
	<path d="M47.2,173.9v2H40.69v0a3.91,3.91,0,0,1,1.77,3.41c0,2.75-1.71,4-4.56,4H31.59v-2h5.5c2.47,0,3.68-.54,3.79-2.25,0-2.22-1.79-3.22-4.37-3.22H31.59v-2Z" fill="#aeaeaf"/>
	<path d="M42.21,188.83H31.59v-2H42.21Zm2.37-2.08h2.21V189H44.58Z" fill="#aeaeaf"/>
	<path d="M33.68,191.62a5.21,5.21,0,0,0-.75,2.43c0,.9.37,2,1.52,2,1.93,0,1.76-4.6,4.74-4.6,2.21,0,3.27,1.64,3.27,3.75a8.13,8.13,0,0,1-.42,2.43l-1.7-.16a5.78,5.78,0,0,0,.54-2.07c0-1-.42-1.87-1.29-1.87-2.17,0-1.54,4.6-4.94,4.6-2.27,0-3.31-1.81-3.31-3.7a6.13,6.13,0,0,1,.59-2.92Z" fill="#aeaeaf"/>
	<path d="M32,214.43a8.12,8.12,0,0,1-.69-3.35c0-3.77,2.29-5.5,5.75-5.5,3.14,0,5.37,2,5.37,5,0,3.54-2.58,4.68-6,4.68v-7.57a3.46,3.46,0,0,0-3.53,3.49A6.25,6.25,0,0,0,34,214.43Zm5.89-1.27a2.69,2.69,0,0,0,3-2.64c0-1.92-1.59-2.71-3-2.85Z" fill="#aeaeaf"/>
	<polygon points="37.15 220.24 42.21 216.78 42.21 219.22 38.42 221.53 42.21 223.88 42.21 226.07 37.15 222.65 31.59 226.4 31.59 223.99 35.76 221.36 31.59 218.74 31.59 216.41 37.15 220.24" fill="#aeaeaf"/>
	<path d="M40.63,233.91V231.1H34.82a1.68,1.68,0,0,0-1.89,1.65,2.4,2.4,0,0,0,.37,1.33H31.64a5.93,5.93,0,0,1-.3-1.66c0-2,1-3.27,3.08-3.27h6.21v-2.4h1.58v2.4h2.45l.63,1.95H42.21v2.81Z" fill="#aeaeaf"/>
	<path d="M42.21,236.37v1.83H40.56v0a3.24,3.24,0,0,1,1.9,2.77,5.07,5.07,0,0,1-.15,1.29H40.56a2.8,2.8,0,0,0,.19-1.08c0-1.75-1.66-2.89-4.33-2.89H31.59v-2Z" fill="#aeaeaf"/>
	<path d="M41.46,245a6.78,6.78,0,0,1,1,3.49c0,3-1.5,4.27-4.39,4.27H33.68a17.72,17.72,0,0,0-2.09.08V251H33v0a3.94,3.94,0,0,1-1.63-3.29c0-2.29,1-3.89,3.31-3.89,2.67,0,3.5,2.91,3.5,4.93,0,.77,0,1.31,0,2.09,1.83,0,2.77-.67,2.77-2.63a5,5,0,0,0-1.09-3.08Zm-4.81,5.81c0-.42,0-.84,0-1.25,0-1.07-.16-3.69-2-3.69a1.87,1.87,0,0,0-1.72,2,2.68,2.68,0,0,0,2.78,3Z" fill="#aeaeaf"/>
	<path d="M42.46,260.75a5.24,5.24,0,0,1-5.56,5.39,5.4,5.4,0,1,1,0-10.8,5.24,5.24,0,0,1,5.56,5.41m-9.53,0c0,2.29,2.08,3.31,4,3.31s4-1.23,4-3.31-2-3.33-4-3.33-4,1-4,3.33" fill="#aeaeaf"/>
	<path d="M42.21,268.76v1.83H40.56v.05a3.22,3.22,0,0,1,1.9,2.76,5.07,5.07,0,0,1-.15,1.29H40.56a2.77,2.77,0,0,0,.19-1.08c0-1.75-1.66-2.89-4.33-2.89H31.59v-2Z" fill="#aeaeaf"/>
	<path d="M33.09,284.37v0a4.27,4.27,0,0,1-1.75-3.62c0-3.2,2.86-4.56,5.75-4.56s5.37,1.5,5.37,4.58a3.79,3.79,0,0,1-1.71,3.52v0H47.2v2H31.59v-1.88Zm-.16-3.2c0,2.2,2.18,3.12,4,3.12,2,0,4-1,4-3.14s-2-3-3.94-2.92c-1.66,0-4,.84-4,2.94" fill="#aeaeaf"/>
	<path d="M42.21,291.78H31.59v-1.95H42.21Zm2.37-2.08h2.21v2.21H44.58Z" fill="#aeaeaf"/>
	<path d="M42.21,295.37v1.89H40.52v0a3.82,3.82,0,0,1,1.94,3.48c0,2.74-1.71,4-4.56,4H31.59V302.8h5.5c2.47,0,3.68-.55,3.79-2.25,0-2.23-1.79-3.23-4.37-3.23H31.59v-1.95Z" fill="#aeaeaf"/>
	<path d="M41.46,308.58a6.81,6.81,0,0,1,1,3.5c0,3-1.5,4.27-4.39,4.27H33.68a17.72,17.72,0,0,0-2.09.08V314.6H33v0a3.94,3.94,0,0,1-1.63-3.29c0-2.29,1-3.89,3.31-3.89,2.67,0,3.5,2.91,3.5,4.93,0,.77,0,1.31,0,2.08,1.83,0,2.77-.67,2.77-2.62a5,5,0,0,0-1.09-3.08Zm-4.81,5.81c0-.42,0-.83,0-1.25,0-1.06-.16-3.68-2-3.68a1.86,1.86,0,0,0-1.72,2,2.68,2.68,0,0,0,2.78,3Z" fill="#aeaeaf"/>
	<path d="M42.21,319.66v1.83H40.56v0a3.23,3.23,0,0,1,1.9,2.77,5.19,5.19,0,0,1-.15,1.29H40.56a2.8,2.8,0,0,0,.19-1.08c0-1.75-1.66-2.9-4.33-2.9H31.59v-1.95Z" fill="#aeaeaf"/>
	<path d="M28.72,327a3.14,3.14,0,0,0-.17.92c0,1.75,2.42,2.33,2.63,2.33a6,6,0,0,0,1.12-.37l9.91-3.6v2.14l-8.78,2.85v0l8.78,2.92v2l-10.85-3.91c-2-.73-4.39-1.5-4.39-4.08a6.52,6.52,0,0,1,.15-1.33Z" fill="#aeaeaf"/>
	<path d="M32.05,353.34c-3.22,0-5.08-1.67-5.08-5.48a10.75,10.75,0,0,1,.73-3.8l1.81.2a8.18,8.18,0,0,0-1,3.83c0,2.06,1.39,3.29,3.64,3.29h1v0a4.42,4.42,0,0,1-1.65-3.56c0-3,2.48-4.54,5.23-4.54s5.64,1.54,5.64,4.75a3.51,3.51,0,0,1-1.83,3.5v0h1.58v1.81Zm4.73-2c2.2,0,4.1-1,4.1-3.1s-2.15-3-4-3c-2,0-3.74,1.13-3.74,3s1.62,3.1,3.6,3.1" fill="#aeaeaf"/>
	<path d="M42.21,358.88H31.59v-2H42.21Zm2.37-2.09h2.21V359H44.58Z" fill="#aeaeaf"/>
	<path d="M40.63,363.73v-2.5h1.58v2.5h1c2.58,0,4.26.66,4.26,3.56a8.48,8.48,0,0,1-.12,1.31l-1.58-.09a3.18,3.18,0,0,0,.12-.93c0-1.69-1.08-1.9-2.52-1.9H42.21v2.81H40.63v-2.81h-9v-1.95Z" fill="#aeaeaf"/>
	<path d="M40.63,376.19v-2.81H34.82A1.68,1.68,0,0,0,32.93,375a2.4,2.4,0,0,0,.37,1.33H31.64a5.93,5.93,0,0,1-.3-1.66c0-2,1-3.27,3.08-3.27h6.21V369h1.58v2.4h2.45l.63,1.95H42.21v2.81Z" fill="#aeaeaf"/>
	<path d="M42.46,389.14a5.23,5.23,0,0,1-5.56,5.39,5.4,5.4,0,1,1,0-10.8,5.24,5.24,0,0,1,5.56,5.41m-9.53,0c0,2.29,2.08,3.31,4,3.31s4-1.23,4-3.31-2-3.33-4-3.33-4,1-4,3.33" fill="#aeaeaf"/>
	<path d="M40.63,398.43v-2.5h1.58v2.5h1c2.58,0,4.26.66,4.26,3.56a8.36,8.36,0,0,1-.12,1.31l-1.58-.09a3.14,3.14,0,0,0,.12-.93c0-1.69-1.08-1.9-2.52-1.9H42.21v2.81H40.63v-2.81h-9v-1.95Z" fill="#aeaeaf"/>
	<path d="M42.21,411v1.9H40.52v0a3.81,3.81,0,0,1,1.94,3.47c0,2.75-1.71,4-4.56,4H31.59v-2h5.5c2.47,0,3.68-.54,3.79-2.24,0-2.23-1.79-3.23-4.37-3.23H31.59v-2Z" fill="#aeaeaf"/>
	<path d="M41.46,424.26a6.78,6.78,0,0,1,1,3.5c0,3-1.5,4.26-4.39,4.26H33.68a16.77,16.77,0,0,0-2.09.09v-1.83H33v0A3.9,3.9,0,0,1,31.34,427c0-2.29,1-3.9,3.31-3.9,2.67,0,3.5,2.92,3.5,4.94,0,.77,0,1.31,0,2.08,1.83,0,2.77-.67,2.77-2.63a5,5,0,0,0-1.09-3.08Zm-4.81,5.81c0-.42,0-.84,0-1.25,0-1.06-.16-3.69-2-3.69a1.87,1.87,0,0,0-1.72,2,2.68,2.68,0,0,0,2.78,3Z" fill="#aeaeaf"/>
	<path d="M40.63,441v-2.81H34.82a1.67,1.67,0,0,0-1.89,1.64,2.4,2.4,0,0,0,.37,1.33H31.64a5.93,5.93,0,0,1-.3-1.66c0-2,1-3.27,3.08-3.27h6.21v-2.39h1.58v2.39h2.45l.63,2H42.21V441Z" fill="#aeaeaf"/>
	<path d="M31.59,452.82v-1.89h1.69v-.05a3.8,3.8,0,0,1-1.94-3.47c0-2.75,1.71-4,4.56-4h6.31v2h-5.5c-2.47,0-3.68.54-3.78,2.25,0,2.22,1.79,3.22,4.37,3.22h4.91v2Z" fill="#aeaeaf"/>
	<path d="M42.21,456.15V458H40.56v0a3.24,3.24,0,0,1,1.9,2.77,5.07,5.07,0,0,1-.15,1.29H40.56a2.8,2.8,0,0,0,.19-1.08c0-1.75-1.66-2.89-4.33-2.89H31.59v-2Z" fill="#aeaeaf"/>
	<path d="M32,472.39a8.16,8.16,0,0,1-.69-3.35c0-3.77,2.29-5.5,5.75-5.5,3.14,0,5.37,2,5.37,5,0,3.54-2.58,4.69-6,4.69v-7.58a3.47,3.47,0,0,0-3.53,3.5A6.25,6.25,0,0,0,34,472.39Zm5.89-1.27a2.69,2.69,0,0,0,3-2.65c0-1.91-1.59-2.7-3-2.85Z" fill="#aeaeaf"/>
	<path d="M40.63,482.88v-2.5h1.58v2.5h1c2.58,0,4.26.67,4.26,3.56a8.36,8.36,0,0,1-.12,1.31l-1.58-.08a3.25,3.25,0,0,0,.12-.94c0-1.69-1.08-1.89-2.52-1.89H42.21v2.81H40.63v-2.81h-9v-2Z" fill="#aeaeaf"/>
	<path d="M42.21,489.71v1.83H40.56v0a3.23,3.23,0,0,1,1.9,2.77,5.19,5.19,0,0,1-.15,1.29H40.56a2.8,2.8,0,0,0,.19-1.08c0-1.75-1.66-2.9-4.33-2.9H31.59v-2Z" fill="#aeaeaf"/>
	<path d="M42.46,502.51a5.23,5.23,0,0,1-5.56,5.39,5.4,5.4,0,1,1,0-10.8,5.24,5.24,0,0,1,5.56,5.41m-9.53,0c0,2.29,2.08,3.31,4,3.31s4-1.23,4-3.31-2-3.33-4-3.33-4,1-4,3.33" fill="#aeaeaf"/>
	<path d="M42.21,510.5v1.83H40.67v0a3.58,3.58,0,0,1,1.79,3.37,3.15,3.15,0,0,1-2.06,3,3.77,3.77,0,0,1,2.06,3.28c0,2.71-1.75,3.69-4.06,3.69H31.59v-2h6.33c1.31,0,3-.31,3-1.89,0-2-2-2.79-3.94-2.79H31.59v-2h6.33c1.31,0,3-.31,3-1.89,0-2-2-2.79-3.94-2.79H31.59v-2Z" fill="#aeaeaf"/>
	<path d="M33.38,533.59a4,4,0,0,0-.2,1.31c0,1.87,1.06,2.37,2.83,2.37H46.12v2.08H35.34c-2,0-4-.93-4-4.07a5.06,5.06,0,0,1,.25-1.69Z" fill="#aeaeaf"/>
	<path d="M41.46,543.41a6.81,6.81,0,0,1,1,3.5c0,3-1.5,4.27-4.39,4.27H33.68a17.72,17.72,0,0,0-2.09.08v-1.83H33v0a3.94,3.94,0,0,1-1.63-3.29c0-2.29,1-3.89,3.31-3.89,2.67,0,3.5,2.91,3.5,4.93,0,.77,0,1.31,0,2.08,1.83,0,2.77-.66,2.77-2.62a5,5,0,0,0-1.09-3.08Zm-4.81,5.81c0-.42,0-.83,0-1.25,0-1.06-.16-3.68-2-3.68a1.86,1.86,0,0,0-1.72,2,2.68,2.68,0,0,0,2.78,3Z" fill="#aeaeaf"/>
	<path d="M42.21,554.49v1.87h-1.5v0a4.25,4.25,0,0,1,1.75,3.6c0,3.08-2.52,4.58-5.37,4.58s-5.75-1.35-5.75-4.56a3.78,3.78,0,0,1,1.71-3.53v0H27.22v-2Zm-1.33,5.1c0-2.13-2-3.15-4-3.15-1.77,0-4,.92-4,3.13s2.35,3,4,2.93c1.92,0,3.94-.79,3.94-2.91" fill="#aeaeaf"/>
	<path d="M41.46,567.7a6.81,6.81,0,0,1,1,3.5c0,3-1.5,4.27-4.39,4.27H33.68a17.72,17.72,0,0,0-2.09.08v-1.83H33v0a3.94,3.94,0,0,1-1.63-3.29c0-2.29,1-3.89,3.31-3.89,2.67,0,3.5,2.91,3.5,4.93,0,.77,0,1.31,0,2.08,1.83,0,2.77-.66,2.77-2.62a5,5,0,0,0-1.09-3.08Zm-4.81,5.81c0-.41,0-.83,0-1.25,0-1.06-.16-3.68-2-3.68a1.87,1.87,0,0,0-1.72,2,2.67,2.67,0,0,0,2.78,3Z" fill="#aeaeaf"/>
	<path d="M42.21,578.78v1.89H40.52v.05a3.8,3.8,0,0,1,1.94,3.47c0,2.75-1.71,4-4.56,4H31.59v-2h5.5c2.47,0,3.68-.54,3.79-2.25,0-2.22-1.79-3.22-4.37-3.22H31.59v-2Z" fill="#aeaeaf"/>
	<path d="M20.23,1.52v2H13.72v0a3.89,3.89,0,0,1,1.76,3.41c0,2.75-1.7,4-4.55,4H4.62V9h5.5c2.47,0,3.68-.54,3.78-2.25,0-2.22-1.79-3.22-4.37-3.22H4.62v-2Z" fill="#aeaeaf"/>
	<path d="M14.49,14.74a6.78,6.78,0,0,1,1,3.49c0,3-1.5,4.27-4.4,4.27H6.7a17.36,17.36,0,0,0-2.08.08V20.75H6v0a4,4,0,0,1-1.62-3.29c0-2.29,1-3.89,3.31-3.89,2.66,0,3.5,2.91,3.5,4.93,0,.77,0,1.31,0,2.08,1.83,0,2.76-.66,2.76-2.62a5,5,0,0,0-1.08-3.08Zm-4.81,5.8c0-.41,0-.83,0-1.24,0-1.07-.17-3.69-2-3.69a1.87,1.87,0,0,0-1.73,2,2.68,2.68,0,0,0,2.79,2.95Z" fill="#aeaeaf"/>
	<path d="M6.7,25A5.21,5.21,0,0,0,6,27.46c0,.89.38,2,1.52,2,1.94,0,1.77-4.6,4.75-4.6,2.2,0,3.27,1.65,3.27,3.75A8.14,8.14,0,0,1,15.07,31l-1.71-.17a5.73,5.73,0,0,0,.54-2.06c0-1-.41-1.87-1.29-1.87-2.16,0-1.54,4.6-4.93,4.6-2.27,0-3.31-1.81-3.31-3.71A6.17,6.17,0,0,1,5,24.92Z" fill="#aeaeaf"/>
	<path d="M13.65,45.34V42.53H7.85A1.69,1.69,0,0,0,6,44.17a2.36,2.36,0,0,0,.38,1.33H4.66a6.27,6.27,0,0,1-.29-1.66c0-2,1-3.27,3.08-3.27h6.2V38.18h1.59v2.39h2.45l.63,2H15.24v2.81Z" fill="#aeaeaf"/>
	<path d="M20.23,47.79v2H13.72v0a3.91,3.91,0,0,1,1.76,3.42c0,2.74-1.7,4-4.55,4H4.62v-2h5.5c2.47,0,3.68-.54,3.78-2.24,0-2.23-1.79-3.23-4.37-3.23H4.62v-2Z" fill="#aeaeaf"/>
	<path d="M5.06,68.65a8.12,8.12,0,0,1-.69-3.35c0-3.77,2.29-5.49,5.75-5.49,3.14,0,5.37,2,5.37,5,0,3.54-2.58,4.68-6,4.68V61.89A3.47,3.47,0,0,0,6,65.38,6.34,6.34,0,0,0,7,68.65ZM11,67.38a2.68,2.68,0,0,0,3-2.64,2.93,2.93,0,0,0-3-2.85Z" fill="#aeaeaf"/>
	<path d="M14.49,78.37a6.81,6.81,0,0,1,1,3.5c0,3-1.5,4.27-4.4,4.27H6.7a17.36,17.36,0,0,0-2.08.08V84.39H6v0a4,4,0,0,1-1.62-3.29c0-2.29,1-3.89,3.31-3.89,2.66,0,3.5,2.91,3.5,4.93,0,.77,0,1.31,0,2.08,1.83,0,2.76-.66,2.76-2.62a5,5,0,0,0-1.08-3.08ZM9.68,84.18c0-.41,0-.83,0-1.25,0-1.06-.17-3.68-2-3.68a1.87,1.87,0,0,0-1.73,2,2.68,2.68,0,0,0,2.79,3Z" fill="#aeaeaf"/>
	<path d="M20.23,89.45v2H13.78v0A3.77,3.77,0,0,1,15.49,95c0,3.08-2.52,4.58-5.37,4.58S4.37,98.19,4.37,95a4.27,4.27,0,0,1,1.75-3.62v0H4.62V89.45Zm-6.33,5.1c0-2.13-2-3.15-4-3.15-1.77,0-4,.92-4,3.13s2.35,3,4,2.93c1.91,0,3.93-.79,3.93-2.91" fill="#aeaeaf"/>
	<path d="M15.24,104.37H4.62v-2H15.24Zm2.37-2.08h2.2v2.21h-2.2Z" fill="#aeaeaf"/>
	<rect x="4.62" y="108.2" width="15.61" height="1.96" fill="#aeaeaf"/>
	<path d="M15.24,116H4.62v-2H15.24Zm2.37-2.08h2.2v2.2h-2.2Z" fill="#aeaeaf"/>
	<path d="M13.65,125.17v-2.81H7.85A1.69,1.69,0,0,0,6,124a2.43,2.43,0,0,0,.38,1.34H4.66a6.42,6.42,0,0,1-.29-1.67c0-2,1-3.27,3.08-3.27h6.2V118h1.59v2.39h2.45l.63,2H15.24v2.81Z" fill="#aeaeaf"/>
	<path d="M1.75,126.83a3.14,3.14,0,0,0-.17.92c0,1.75,2.42,2.33,2.62,2.33a6.35,6.35,0,0,0,1.13-.37l9.91-3.6v2.14L6.45,131.1v0l8.79,2.92v2L4.39,132.12c-2-.73-4.39-1.5-4.39-4.08a5.87,5.87,0,0,1,.15-1.33Z" fill="#aeaeaf"/>
	<path d="M13.65,149.46v-2.81H7.85A1.69,1.69,0,0,0,6,148.3a2.39,2.39,0,0,0,.38,1.33H4.66A6.35,6.35,0,0,1,4.37,148c0-2,1-3.26,3.08-3.26h6.2v-2.4h1.59v2.4h2.45l.63,2H15.24v2.81Z" fill="#aeaeaf"/>
	<path d="M15.49,156.62A5.24,5.24,0,0,1,9.93,162a5.4,5.4,0,1,1,0-10.8,5.25,5.25,0,0,1,5.56,5.41m-9.54,0c0,2.29,2.09,3.31,4,3.31s4-1.23,4-3.31-2-3.33-4-3.33-4,1-4,3.33" fill="#aeaeaf"/>
	<path d="M15.24,172.63H4.62v-2H15.24Zm2.37-2.08h2.2v2.21h-2.2Z" fill="#aeaeaf"/>
	<path d="M15.24,176.21v1.9H13.55v0a3.81,3.81,0,0,1,1.94,3.47c0,2.75-1.71,4-4.56,4H4.62v-2h5.5c2.47,0,3.68-.54,3.78-2.25,0-2.22-1.79-3.22-4.37-3.22H4.62v-2Z" fill="#aeaeaf"/>
	<path d="M13.45,195.67a5.66,5.66,0,0,0,.45-2.12c0-2.18-2-3.41-4-3.41s-4,1-4,3.54a4.08,4.08,0,0,0,.61,2.1l-1.75.14a5.85,5.85,0,0,1-.44-2.45,5.37,5.37,0,0,1,5.56-5.41,5.24,5.24,0,0,1,5.56,5.41,7.27,7.27,0,0,1-.42,2.37Z" fill="#aeaeaf"/>
	<path d="M15.24,198.17V200H13.59v.05a3.23,3.23,0,0,1,1.9,2.76,5.57,5.57,0,0,1-.15,1.29H13.59a2.77,2.77,0,0,0,.19-1.08c0-1.75-1.67-2.89-4.33-2.89H4.62v-2Z" fill="#aeaeaf"/>
	<path d="M5.06,214.41a8.12,8.12,0,0,1-.69-3.35c0-3.77,2.29-5.5,5.75-5.5,3.14,0,5.37,2,5.37,5,0,3.54-2.58,4.68-6,4.68v-7.58A3.48,3.48,0,0,0,6,211.14,6.34,6.34,0,0,0,7,214.41ZM11,213.14a2.68,2.68,0,0,0,3-2.64c0-1.92-1.58-2.71-3-2.86Z" fill="#aeaeaf"/>
	<path d="M14.49,218.34a6.81,6.81,0,0,1,1,3.5c0,3-1.5,4.27-4.4,4.27H6.7a17.36,17.36,0,0,0-2.08.08v-1.83H6v0A4,4,0,0,1,4.37,221c0-2.29,1-3.89,3.31-3.89,2.66,0,3.5,2.91,3.5,4.93,0,.77,0,1.31,0,2.08,1.83,0,2.76-.67,2.76-2.62a5,5,0,0,0-1.08-3.08Zm-4.81,5.81c0-.42,0-.83,0-1.25,0-1.06-.17-3.68-2-3.68a1.87,1.87,0,0,0-1.73,2,2.68,2.68,0,0,0,2.79,3Z" fill="#aeaeaf"/>
	<path d="M6.7,228.63A5.21,5.21,0,0,0,6,231.06c0,.9.38,2,1.52,2,1.94,0,1.77-4.6,4.75-4.6,2.2,0,3.27,1.65,3.27,3.75a8.13,8.13,0,0,1-.42,2.43l-1.71-.16a5.78,5.78,0,0,0,.54-2.06c0-1-.41-1.88-1.29-1.88-2.16,0-1.54,4.6-4.93,4.6-2.27,0-3.31-1.81-3.31-3.7A6.24,6.24,0,0,1,5,228.52Z" fill="#aeaeaf"/>
	<path d="M5.06,245.65a8.07,8.07,0,0,1-.69-3.35c0-3.76,2.29-5.49,5.75-5.49,3.14,0,5.37,2,5.37,5,0,3.54-2.58,4.69-6,4.69v-7.58A3.47,3.47,0,0,0,6,242.39,6.26,6.26,0,0,0,7,245.65ZM11,244.38a2.67,2.67,0,0,0,3-2.64c0-1.91-1.58-2.7-3-2.85Z" fill="#aeaeaf"/>
	<path d="M1.75,254.09a3.07,3.07,0,0,0-.17.91c0,1.75,2.42,2.33,2.62,2.33A6.35,6.35,0,0,0,5.33,257l9.91-3.6v2.14l-8.79,2.85v0l8.79,2.91v2L4.39,259.37c-2-.72-4.39-1.5-4.39-4.08A6,6,0,0,1,.15,254Z" fill="#aeaeaf"/>
	<path d="M15.49,270a5.24,5.24,0,0,1-5.56,5.39,5.4,5.4,0,1,1,0-10.8A5.24,5.24,0,0,1,15.49,270M6,270c0,2.29,2.09,3.31,4,3.31s4-1.23,4-3.31-2-3.33-4-3.33-4,1-4,3.33" fill="#aeaeaf"/>
	<path d="M4.62,287.39V285.5H6.31v-.05A3.8,3.8,0,0,1,4.37,282c0-2.75,1.71-4,4.56-4h6.31v2H9.74c-2.48,0-3.68.54-3.79,2.25,0,2.23,1.79,3.22,4.37,3.22h4.92v2Z" fill="#aeaeaf"/>
	<path d="M15.24,290.72v1.83H13.59v.05a3.24,3.24,0,0,1,1.9,2.77,5.55,5.55,0,0,1-.15,1.28H13.59a2.77,2.77,0,0,0,.19-1.08c0-1.74-1.67-2.89-4.33-2.89H4.62v-2Z" fill="#aeaeaf"/>
	<path d="M20.23,304.61v1.95H13.72v.05A3.88,3.88,0,0,1,15.48,310c0,2.75-1.7,4-4.55,4H4.62V312h5.5c2.47,0,3.68-.54,3.78-2.25,0-2.23-1.79-3.23-4.37-3.23H4.62v-1.95Z" fill="#aeaeaf"/>
	<path d="M5.06,325.46a8.07,8.07,0,0,1-.69-3.35c0-3.76,2.29-5.49,5.75-5.49,3.14,0,5.37,2,5.37,5,0,3.54-2.58,4.69-6,4.69V318.7A3.47,3.47,0,0,0,6,322.2,6.26,6.26,0,0,0,7,325.46ZM11,324.19a2.67,2.67,0,0,0,3-2.64c0-1.91-1.58-2.7-3-2.85Z" fill="#aeaeaf"/>
	<path d="M14.49,329.4a6.78,6.78,0,0,1,1,3.5c0,3-1.5,4.26-4.4,4.26H6.7a16.42,16.42,0,0,0-2.08.09v-1.83H6v-.05a3.92,3.92,0,0,1-1.62-3.28c0-2.29,1-3.9,3.31-3.9,2.66,0,3.5,2.92,3.5,4.94,0,.77,0,1.31,0,2.08,1.83,0,2.76-.67,2.76-2.63a5,5,0,0,0-1.08-3.08Zm-4.81,5.81c0-.42,0-.84,0-1.25,0-1.06-.17-3.69-2-3.69a1.88,1.88,0,0,0-1.73,2,2.68,2.68,0,0,0,2.79,3Z" fill="#aeaeaf"/>
	<rect x="4.62" y="340.72" width="15.61" height="1.96" fill="#aeaeaf"/>
	<path d="M13.65,351.9v-2.81H7.85A1.69,1.69,0,0,0,6,350.74a2.39,2.39,0,0,0,.38,1.33H4.66a6.35,6.35,0,0,1-.29-1.67c0-2,1-3.27,3.08-3.27h6.2v-2.39h1.59v2.39h2.45l.63,2H15.24v2.81Z" fill="#aeaeaf"/>
	<path d="M20.23,354.36v1.95H13.72v.05a3.88,3.88,0,0,1,1.76,3.41c0,2.75-1.7,4-4.55,4H4.62v-2h5.5c2.47,0,3.68-.54,3.78-2.25,0-2.23-1.79-3.23-4.37-3.23H4.62v-1.95Z" fill="#aeaeaf"/>
	<path d="M14.49,373.36a6.81,6.81,0,0,1,1,3.5c0,3-1.5,4.27-4.4,4.27H6.7a17.36,17.36,0,0,0-2.08.08v-1.83H6v0a4,4,0,0,1-1.62-3.29c0-2.29,1-3.89,3.31-3.89,2.66,0,3.5,2.91,3.5,4.93,0,.77,0,1.31,0,2.08,1.83,0,2.76-.66,2.76-2.62a5,5,0,0,0-1.08-3.08Zm-4.81,5.81c0-.42,0-.83,0-1.25,0-1.06-.17-3.68-2-3.68a1.87,1.87,0,0,0-1.73,2,2.68,2.68,0,0,0,2.79,2.95Z" fill="#aeaeaf"/>
	<path d="M15.24,384.44v1.89H13.55v0a3.83,3.83,0,0,1,1.94,3.48c0,2.75-1.71,4-4.56,4H4.62v-2h5.5c2.47,0,3.68-.54,3.78-2.25,0-2.23-1.79-3.23-4.37-3.23H4.62v-1.95Z" fill="#aeaeaf"/>
	<path d="M6.12,404.67v0A4.27,4.27,0,0,1,4.37,401c0-3.21,2.85-4.56,5.75-4.56s5.37,1.5,5.37,4.58a3.8,3.8,0,0,1-1.71,3.52v0h6.45v2H4.62v-1.87ZM6,401.47c0,2.2,2.19,3.12,4,3.12,2,0,4-1,4-3.14s-2-3-3.93-2.92c-1.66,0-4,.83-4,2.94" fill="#aeaeaf"/>
	<polygon points="4.62 427.67 4.62 425.4 13.53 422.66 13.53 422.61 4.62 419.93 4.62 417.66 15.24 414.25 15.24 416.39 6.45 418.83 6.45 418.87 15.24 421.57 15.24 423.88 6.45 426.55 6.45 426.59 15.24 429.17 15.24 431.09 4.62 427.67" fill="#aeaeaf"/>
	<path d="M5.06,441.14a8.12,8.12,0,0,1-.69-3.35c0-3.77,2.29-5.49,5.75-5.49,3.14,0,5.37,2,5.37,5,0,3.54-2.58,4.68-6,4.68v-7.57A3.47,3.47,0,0,0,6,437.87,6.34,6.34,0,0,0,7,441.14ZM11,439.87a2.68,2.68,0,0,0,3-2.64,2.93,2.93,0,0,0-3-2.85Z" fill="#aeaeaf"/>
	<rect x="4.62" y="444.83" width="15.61" height="1.96" fill="#aeaeaf"/>
	<rect x="4.62" y="450.61" width="15.61" height="1.96" fill="#aeaeaf"/>
	<rect x="9.43" y="455.28" width="1.58" height="5.35" fill="#aeaeaf"/>
	<path d="M20.23,463.08v2H13.78v0a3.79,3.79,0,0,1,1.71,3.52c0,3.08-2.52,4.58-5.37,4.58s-5.75-1.36-5.75-4.56A4.27,4.27,0,0,1,6.12,465v0H4.62v-1.88Zm-6.33,5.1c0-2.12-2-3.14-4-3.14-1.77,0-4,.91-4,3.12s2.35,3,4,2.94c1.91,0,3.93-.8,3.93-2.92" fill="#aeaeaf"/>
	<path d="M5.06,483.94a8.12,8.12,0,0,1-.69-3.35c0-3.77,2.29-5.5,5.75-5.5,3.14,0,5.37,2,5.37,5,0,3.54-2.58,4.68-6,4.68v-7.57A3.47,3.47,0,0,0,6,480.67,6.34,6.34,0,0,0,7,483.94ZM11,482.67a2.68,2.68,0,0,0,3-2.64,2.93,2.93,0,0,0-3-2.85Z" fill="#aeaeaf"/>
	<path d="M15.24,489.58H4.62v-1.95H15.24Zm2.37-2.08h2.2v2.21h-2.2Z" fill="#aeaeaf"/>
	<path d="M15.24,493.16v1.9H13.55v0a3.81,3.81,0,0,1,1.94,3.47c0,2.75-1.71,4-4.56,4H4.62v-2h5.5c2.47,0,3.68-.54,3.78-2.24,0-2.23-1.79-3.23-4.37-3.23H4.62v-2Z" fill="#aeaeaf"/>
	<path d="M5.08,515.27c-3.23,0-5.08-1.67-5.08-5.48A10.75,10.75,0,0,1,.73,506l1.81.2a8.07,8.07,0,0,0-1,3.83c0,2.06,1.4,3.29,3.64,3.29h1v0a4.44,4.44,0,0,1-1.64-3.56c0-3,2.48-4.54,5.23-4.54s5.64,1.54,5.64,4.75a3.5,3.5,0,0,1-1.84,3.5v0h1.59v1.81Zm4.72-2c2.21,0,4.1-1,4.1-3.1s-2.14-2.95-4-2.95c-2,0-3.75,1.12-3.75,2.95s1.63,3.1,3.6,3.1" fill="#aeaeaf"/>
</svg>
