<svg xmlns="http://www.w3.org/2000/svg" width="100%" height="100%" viewBox="0 0 88.6 647.99">
  <path d="M12.4,1c-3.2,4.53-5,9.83-5,17,0,9.5,5.4,17.34,17.55,17.34C41.72,35.34,43.81,0,66.26,0,80,0,88.6,10.82,88.6,24.41a42,42,0,0,1-2.82,15.13L78,38.32c2.09-3.42,3.19-8.83,3.19-14,0-7.95-3.68-16.68-14.72-16.68C49.33,7.62,49.21,43,24.17,43,6.87,43,0,29.6,0,17.67A40.3,40.3,0,0,1,3.68.22Z" fill="#196039"/>
  <path d="M87.13,90.67v8.62L1.47,129.88v-7.95l23-8.28V74.77l-23-8.28v-7.4ZM79,94.43,31.78,77.64v33.47Z" fill="#196039"/>
  <path d="M12.4,147.55c-3.2,4.53-5,9.83-5,17,0,9.5,5.4,17.34,17.55,17.34,16.81,0,18.9-35.34,41.35-35.34C80,146.56,88.6,157.38,88.6,171a42,42,0,0,1-2.82,15.13L78,184.88c2.09-3.42,3.19-8.84,3.19-14,0-7.95-3.68-16.67-14.72-16.67-17.18,0-17.3,35.34-42.34,35.34C6.87,189.52,0,176.15,0,164.23a40.26,40.26,0,0,1,3.68-17.45Z" fill="#196039"/>
  <path d="M87.13,237.23v8.61L1.47,276.44v-7.95l23-8.29V221.33L1.47,213v-7.4ZM79,241,31.78,224.2v33.46Z" fill="#196039"/>
  <polygon points="1.47 366.58 1.47 357.52 77.55 337.98 77.55 337.76 1.47 317.88 1.47 308.71 87.13 286.62 87.13 294.46 11.04 313.46 11.04 313.68 87.13 333.45 87.13 342.62 11.04 362.05 11.04 362.27 87.13 381.6 87.13 388.89 1.47 366.58" fill="#196039"/>
  <path d="M87.13,429.2v8.62L1.47,468.41v-8l23-8.28V413.3L1.47,405v-7.4ZM79,433,31.78,416.17v33.47Z" fill="#196039"/>
  <path d="M12.4,488.29c-3.2,4.53-5,9.83-5,17,0,9.5,5.4,17.34,17.55,17.34,16.81,0,18.9-35.34,41.35-35.34,13.75,0,22.34,10.82,22.34,24.4a42.06,42.06,0,0,1-2.82,15.14L78,525.62c2.09-3.42,3.19-8.84,3.19-14,0-7.95-3.68-16.67-14.72-16.67-17.18,0-17.3,35.34-42.34,35.34C6.87,530.26,0,516.9,0,505a40.26,40.26,0,0,1,3.68-17.45Z" fill="#196039"/>
  <polygon points="87.13 556.88 87.13 564.5 49.21 564.5 49.21 603.48 87.13 603.48 87.13 611.1 1.47 611.1 1.47 603.48 41.85 603.48 41.85 564.5 1.47 564.5 1.47 556.88 87.13 556.88" fill="#196039"/>
  <rect x="1.47" y="640.37" width="85.65" height="7.62" fill="#196039"/>
</svg>